# File created by Blade
# Date/Time:  Thu Sep 25 19:26:26 2014
# Frame Rate: 120.000 fps
#------------------------------------------------------
:FULLY-SPECIFIED
:DEGREES
591
root -1.135304 31.853634 -12.418655 105.145496 -1.647161 1.654394
Spine 41.539645 4.865538 17.536680
Head -27.744537 -10.035795 8.482975
LeftShoulder 3.279848 -26.533571 43.237386
LeftArm 40.025464 -23.268255 -32.690205
LeftForeArm 52.720326 -0.000000 65.222271
LeftHand -36.712818 0.000000 50.739953
LeftHandThumb1 -26.253704 0.000000 33.147579
RightShoulder 0.423851 57.707120 -45.720786
RightArm 0.587057 24.370736 51.180666
RightForeArm -48.424150 -0.000000 78.950761
RightHand -9.266812 0.000000 -52.691301
RightHandThumb1 -24.326973 -0.000000 -32.862282
LeftUpLeg -109.112341 11.562025 -12.793703
LeftLeg -3.772698 -0.000000 0.000000
LeftFoot 1.510990 10.934340 -30.691984
LeftToeBase 9.994748 -0.000000 -0.000000
RightUpLeg -114.075381 -12.853864 15.964879
RightLeg -0.692185 -0.000000 0.000000
RightFoot 6.321322 -9.019232 11.421432
RightToeBase 2.118187 -0.000000 -0.000000
592
root -1.114166 31.853419 -12.427615 105.058161 -1.410079 1.729849
Spine 41.641594 4.791435 17.497564
Head -27.951194 -9.898263 8.772737
LeftShoulder 3.353852 -26.695721 43.277914
LeftArm 39.854426 -23.071094 -32.943631
LeftForeArm 53.205922 -0.000000 65.166090
LeftHand -37.026932 0.000000 51.358456
LeftHandThumb1 -26.253704 0.000000 33.147579
RightShoulder 0.449762 57.472613 -45.666568
RightArm 1.326681 23.301427 51.131580
RightForeArm -49.012358 -0.000000 78.998482
RightHand -9.076201 -0.000000 -52.045496
RightHandThumb1 -24.326973 -0.000000 -32.862282
LeftUpLeg -109.134135 11.455562 -12.703966
LeftLeg -3.694735 -0.000000 0.000000
LeftFoot 1.580587 10.779148 -30.618681
LeftToeBase 10.013217 -0.000000 -0.000000
RightUpLeg -113.977107 -12.975354 16.097945
RightLeg -0.679957 -0.000000 0.000000
RightFoot 6.303500 -9.104778 11.472955
RightToeBase 2.160387 -0.000000 -0.000000
593
root -1.093413 31.854122 -12.434982 105.018590 -1.168894 1.820776
Spine 41.647341 4.716776 17.469191
Head -28.017204 -9.935869 8.934870
LeftShoulder 3.553368 -26.882551 43.242594
LeftArm 39.583035 -22.886473 -33.114758
LeftForeArm 53.429543 -0.000000 65.158216
LeftHand -37.187066 0.000000 51.816309
LeftHandThumb1 -26.253704 0.000000 33.147579
RightShoulder 0.569985 57.245197 -45.568017
RightArm 2.026358 22.328164 51.074256
RightForeArm -49.669482 -0.000000 78.940124
RightHand -9.285250 -0.000000 -52.078709
RightHandThumb1 -24.326973 -0.000000 -32.862282
LeftUpLeg -109.186331 11.341337 -12.571518
LeftLeg -3.618163 -0.000000 0.000000
LeftFoot 1.648465 10.655216 -30.536191
LeftToeBase 10.026676 -0.000000 -0.000000
RightUpLeg -113.919367 -13.089389 16.270373
RightLeg -0.708302 -0.000000 0.000000
RightFoot 6.314138 -9.214711 11.540617
RightToeBase 2.190191 -0.000000 -0.000000
594
root -1.070056 31.854569 -12.442140 104.969520 -0.943995 1.917206
Spine 41.716413 4.596647 17.418952
Head -28.291613 -9.876383 9.049760
LeftShoulder 3.601567 -27.094715 43.246530
LeftArm 39.396752 -22.685912 -33.348653
LeftForeArm 53.614134 -0.000000 65.091549
LeftHand -37.205994 -0.000000 52.324958
LeftHandThumb1 -26.253704 0.000000 33.147579
RightShoulder 0.525214 57.144111 -45.643154
RightArm 2.738370 21.338305 51.092184
RightForeArm -50.431773 -0.000000 78.819595
RightHand -9.458846 -0.000000 -51.531380
RightHandThumb1 -24.326973 -0.000000 -32.862282
LeftUpLeg -109.216528 11.215927 -12.450513
LeftLeg -3.557647 -0.000000 0.000000
LeftFoot 1.714107 10.531724 -30.433497
LeftToeBase 10.092433 -0.000000 -0.000000
RightUpLeg -113.846505 -13.246906 16.360534
RightLeg -0.701919 -0.000000 0.000000
RightFoot 6.303560 -9.294392 11.581327
RightToeBase 2.298746 -0.000000 -0.000000
595
root -1.048548 31.853834 -12.445243 104.927052 -0.780165 1.996915
Spine 41.864886 4.642289 17.263737
Head -28.875978 -9.750023 9.894314
LeftShoulder 3.544260 -27.435966 43.458567
LeftArm 39.364516 -22.444491 -33.720447
LeftForeArm 53.978686 -0.000000 65.016785
LeftHand -37.424578 -0.000000 52.408385
LeftHandThumb1 -26.253704 0.000000 33.147579
RightShoulder 0.195645 57.036980 -45.725526
RightArm 3.508936 20.269087 51.039675
RightForeArm -51.002711 -0.000000 78.546081
RightHand -9.362985 -0.000000 -51.213603
RightHandThumb1 -24.326973 -0.000000 -32.862282
LeftUpLeg -109.233016 11.090924 -12.418281
LeftLeg -3.521526 -0.000000 0.000000
LeftFoot 1.792880 10.372101 -30.357271
LeftToeBase 10.054174 -0.000000 -0.000000
RightUpLeg -113.769802 -13.390223 16.406016
RightLeg -0.739573 -0.000000 0.000000
RightFoot 6.353033 -9.412385 11.507678
RightToeBase 1.875498 -0.000000 -0.000000
596
root -1.025751 31.853181 -12.446363 104.924656 -0.603204 2.076029
Spine 41.862763 4.604583 17.146039
Head -28.946288 -9.755087 10.104778
LeftShoulder 3.674695 -27.764301 43.366703
LeftArm 39.245765 -22.143071 -33.840101
LeftForeArm 54.065952 -0.000000 64.837303
LeftHand -37.524552 -0.000000 52.863496
LeftHandThumb1 -26.253704 0.000000 33.147579
RightShoulder 0.028051 56.939700 -45.705543
RightArm 4.394467 19.065918 51.024759
RightForeArm -51.678832 0.000000 78.074264
RightHand -9.588950 -0.000000 -51.286600
RightHandThumb1 -24.326973 -0.000000 -32.862282
LeftUpLeg -109.271064 10.960088 -12.370899
LeftLeg -3.515427 -0.000000 0.000000
LeftFoot 1.858091 10.248235 -30.297983
LeftToeBase 10.058671 -0.000000 -0.000000
RightUpLeg -113.724364 -13.530192 16.473315
RightLeg -0.770324 -0.000000 0.000000
RightFoot 6.259341 -9.564712 11.764597
RightToeBase 2.090691 -0.000000 -0.000000
597
root -1.003218 31.852113 -12.452198 104.865571 -0.384868 2.162665
Spine 41.999674 4.880357 17.245385
Head -29.247527 -9.853623 10.665376
LeftShoulder 3.911311 -28.241107 43.544641
LeftArm 39.190795 -21.932692 -34.219716
LeftForeArm 54.260789 -0.000000 64.696486
LeftHand -37.757141 -0.000000 53.063585
LeftHandThumb1 -26.253704 0.000000 33.147579
RightShoulder -0.521220 56.533897 -45.835837
RightArm 5.436524 17.959573 50.812657
RightForeArm -52.012251 -0.000000 77.475055
RightHand -9.629520 -0.000000 -51.244449
RightHandThumb1 -24.326973 -0.000000 -32.862282
LeftUpLeg -109.268665 10.857929 -12.245780
LeftLeg -3.487262 -0.000000 0.000000
LeftFoot 1.935844 10.104033 -30.225597
LeftToeBase 10.027018 -0.000000 -0.000000
RightUpLeg -113.631899 -13.678348 16.572396
RightLeg -0.788344 -0.000000 0.000000
RightFoot 6.231178 -9.665939 11.894018
RightToeBase 2.114434 -0.000000 -0.000000
598
root -0.984947 31.853225 -12.458358 104.821384 -0.166111 2.209210
Spine 42.154274 5.151900 17.296784
Head -29.628833 -9.946278 11.248112
LeftShoulder 4.143417 -28.747316 43.682804
LeftArm 39.083273 -21.769009 -34.530192
LeftForeArm 54.247580 -0.000000 64.488926
LeftHand -37.105636 -0.000000 53.591600
LeftHandThumb1 -26.253704 0.000000 33.147579
RightShoulder -0.931574 56.200530 -45.997276
RightArm 6.226211 17.005554 50.545054
RightForeArm -52.311816 -0.000000 76.929414
RightHand -9.602268 -0.000000 -51.170494
RightHandThumb1 -24.326973 -0.000000 -32.862282
LeftUpLeg -109.284266 10.802654 -12.121878
LeftLeg -3.470582 -0.000000 0.000000
LeftFoot 2.017683 10.008965 -30.177341
LeftToeBase 10.014288 -0.000000 -0.000000
RightUpLeg -113.548924 -13.763846 16.671446
RightLeg -0.797517 -0.000000 0.000000
RightFoot 6.240567 -9.782468 11.915584
RightToeBase 2.112486 -0.000000 -0.000000
599
root -0.965616 31.851925 -12.460125 104.805281 0.034859 2.311431
Spine 42.263918 5.262156 17.280905
Head -30.042637 -9.927702 11.728605
LeftShoulder 4.270765 -29.154084 43.801068
LeftArm 38.966272 -21.513537 -34.710862
LeftForeArm 54.114706 -0.000000 64.335570
LeftHand -37.447649 0.000000 53.716259
LeftHandThumb1 -26.253704 0.000000 33.147579
RightShoulder -1.282780 56.069197 -46.128643
RightArm 6.957147 15.984713 50.334101
RightForeArm -52.582638 -0.000000 76.323033
RightHand -9.762148 -0.000000 -51.057959
RightHandThumb1 -24.326973 -0.000000 -32.862282
LeftUpLeg -109.291348 10.680263 -12.008637
LeftLeg -3.482413 -0.000000 0.000000
LeftFoot 2.097137 9.902553 -30.157562
LeftToeBase 9.997126 -0.000000 -0.000000
RightUpLeg -113.504321 -13.907523 16.786255
RightLeg -0.818569 -0.000000 0.000000
RightFoot 6.175206 -9.912420 12.055244
RightToeBase 2.208729 -0.000000 -0.000000
600
root -0.944587 31.851913 -12.461549 104.785355 0.214393 2.399821
Spine 42.365480 5.233149 17.160476
Head -30.335796 -9.819356 12.061946
LeftShoulder 4.315038 -29.419313 43.860291
LeftArm 38.890158 -21.334080 -34.800072
LeftForeArm 54.126368 0.000000 64.118578
LeftHand -37.527923 0.000000 54.048384
LeftHandThumb1 -26.253704 0.000000 33.147579
RightShoulder -1.301159 56.088248 -46.102800
RightArm 7.595931 15.034563 50.066689
RightForeArm -52.828102 -0.000000 75.692077
RightHand -9.861110 -0.000000 -50.773276
RightHandThumb1 -24.326973 -0.000000 -32.862282
LeftUpLeg -109.284346 10.564884 -11.909806
LeftLeg -3.504834 -0.000000 0.000000
LeftFoot 2.189204 9.813841 -30.279431
LeftToeBase 9.820345 -0.000000 -0.000000
RightUpLeg -113.446297 -14.066201 16.814872
RightLeg -0.800534 -0.000000 0.000000
RightFoot 6.095793 -10.050356 12.178007
RightToeBase 2.549179 -0.000000 -0.000000
601
root -0.925005 31.851124 -12.459587 104.800996 0.365383 2.476636
Spine 42.508903 5.364686 17.044829
Head -30.890152 -9.616986 12.611330
LeftShoulder 4.332832 -29.828549 44.070738
LeftArm 38.806225 -21.135221 -35.021654
LeftForeArm 54.347236 -0.000000 64.061782
LeftHand -38.171334 -0.000000 53.630848
LeftHandThumb1 -26.253704 0.000000 33.147579
RightShoulder -1.758276 56.462697 -46.464565
RightArm 7.861985 14.081150 49.991311
RightForeArm -53.213047 -0.000000 75.006683
RightHand -10.049658 -0.000000 -50.766939
RightHandThumb1 -24.326973 -0.000000 -32.862282
LeftUpLeg -109.309266 10.436640 -11.894770
LeftLeg -3.544620 -0.000000 0.000000
LeftFoot 2.265216 9.670972 -30.189581
LeftToeBase 9.979550 -0.000000 -0.000000
RightUpLeg -113.416207 -14.200574 16.852445
RightLeg -0.816082 -0.000000 0.000000
RightFoot 6.052125 -10.186732 12.332052
RightToeBase 2.431103 -0.000000 -0.000000
